<?xml version="1.0" standalone="no"?>
<!DOCTYPE svg PUBLIC "-//W3C//DTD SVG 20010904//EN"
 "http://www.w3.org/TR/2001/REC-SVG-20010904/DTD/svg10.dtd">
<svg version="1.0" xmlns="http://www.w3.org/2000/svg"
 width="860.000000pt" height="860.000000pt" viewBox="0 0 860.000000 860.000000"
 preserveAspectRatio="xMidYMid meet">
<metadata>
Created by potrace 1.11, written by Peter Selinger 2001-2013
</metadata>
<g transform="translate(0.000000,860.000000) scale(0.100000,-0.100000)"
fill="#000000" stroke="none">
<path d="M3404 6936 c-67 -29 -103 -127 -77 -207 26 -78 94 -131 168 -133 35
-1 40 -4 41 -25 1 -13 -25 -75 -58 -138 -91 -176 -153 -383 -175 -578 -9 -77
-9 -548 -1 -830 5 -163 4 -184 -14 -223 -28 -63 -76 -135 -157 -235 -75 -93
-160 -253 -182 -339 -12 -50 -22 -56 -52 -34 -16 13 -118 19 -287 19 -137 -1
-139 -1 -159 -33 l-18 -30 -11 25 c-15 33 -37 32 -64 -5 -12 -16 -25 -30 -29
-30 -4 0 -10 20 -13 44 -11 74 -46 71 -84 -8 l-20 -40 -20 46 c-11 25 -24 48
-29 51 -15 10 -52 -21 -72 -61 l-18 -36 -21 46 c-17 40 -56 77 -72 69 -19 -9
-45 -42 -60 -73 l-16 -37 -18 59 c-10 32 -25 61 -33 65 -19 7 -53 -22 -53 -45
0 -9 -4 -20 -9 -25 -5 -6 -11 -19 -13 -30 -3 -15 -9 -9 -27 28 -32 67 -56 63
-91 -17 l-22 -48 -26 42 c-35 53 -59 51 -89 -10 -12 -25 -22 -40 -23 -33 0 19
-51 61 -69 58 -9 -2 -19 -4 -22 -4 -9 -1 -29 -50 -29 -71 0 -30 -13 -24 -35
17 -27 50 -51 54 -61 11 -4 -18 -9 -36 -10 -40 -1 -5 -2 -20 -3 -35 l-1 -28
-19 31 c-10 17 -32 41 -47 53 l-29 22 -17 -21 c-10 -12 -19 -33 -19 -46 -1
-13 -3 -28 -4 -34 -1 -5 -3 -15 -4 -22 0 -7 -20 7 -44 30 -47 46 -66 52 -68
22 -1 -11 -3 -24 -4 -30 -1 -5 -3 -25 -4 -42 l-2 -33 -23 26 c-36 42 -62 52
-80 33 -9 -8 -17 -26 -17 -40 -2 -36 -3 -42 -11 -49 -3 -4 -9 2 -12 13 -4 11
-20 25 -36 31 -26 9 -32 7 -49 -15 -11 -14 -17 -33 -14 -44 6 -24 4 -24 -33
-5 -26 13 -30 13 -50 -6 -13 -12 -26 -39 -29 -61 l-7 -40 -22 20 c-57 52 -85
32 -87 -62 -1 -31 -5 -53 -10 -50 -25 15 -99 15 -130 -1 -91 -46 -312 -191
-321 -210 -8 -17 -5 -33 10 -66 28 -63 882 -1523 896 -1531 23 -15 60 -7 122
27 35 19 94 51 131 72 169 91 198 119 183 175 -7 23 -4 28 25 42 18 9 38 16
44 16 6 0 19 4 29 9 39 20 74 33 207 80 166 58 171 59 362 67 289 12 281 13
292 -19 16 -44 54 -52 326 -63 138 -6 151 -5 167 12 26 30 37 91 39 212 1 62
4 110 7 107 4 -3 21 -47 39 -96 47 -134 107 -232 193 -320 76 -77 167 -136
246 -159 39 -12 42 -15 63 -82 13 -38 20 -72 18 -75 -3 -2 -16 -6 -29 -7 -171
-22 -247 -38 -318 -68 -81 -35 -100 -69 -59 -107 21 -19 120 -55 184 -66 17
-2 39 -7 50 -9 142 -28 613 -28 770 -1 17 3 53 10 80 15 28 6 59 12 70 14 48
10 133 48 152 69 27 31 23 48 -16 74 -29 20 -53 29 -126 49 -9 3 -32 7 -165
29 -19 3 -125 8 -235 11 -110 4 -202 8 -204 10 -2 2 6 28 18 57 l22 54 82 0
c96 -1 150 7 232 35 191 63 425 223 530 362 16 21 71 72 123 113 l93 74 22
-28 c75 -98 239 -237 355 -299 56 -30 65 -55 22 -60 -14 -2 -74 -8 -135 -14
-221 -22 -442 -66 -535 -107 -128 -56 -132 -111 -10 -166 50 -23 194 -63 259
-72 53 -7 106 -16 121 -20 8 -2 47 -7 85 -11 39 -3 77 -8 85 -9 8 -2 35 -4 59
-4 l44 -1 -6 -35 c-3 -19 -5 -35 -4 -35 2 0 62 -18 135 -39 92 -27 135 -36
137 -28 3 7 8 34 12 62 l8 50 290 1 c474 3 816 32 1050 90 30 7 30 7 12 -14
-10 -11 -17 -29 -15 -38 8 -41 122 -89 263 -111 17 -2 41 -6 55 -9 104 -19
500 -26 650 -12 234 23 366 71 376 135 7 40 -162 102 -324 120 -31 3 -76 8
-100 12 l-42 6 40 45 c62 69 120 161 205 325 106 206 178 310 290 419 50 48
139 116 152 116 5 0 28 -9 51 -20 83 -40 163 -19 192 49 12 29 10 122 -4 184
-32 140 -193 351 -310 406 -121 58 -208 11 -210 -112 0 -47 -3 -51 -56 -96
-76 -64 -70 -58 -150 -136 -66 -64 -136 -153 -337 -426 -82 -111 -122 -145
-181 -155 -75 -12 -132 31 -127 96 8 114 97 370 278 807 31 72 62 146 70 165
9 18 91 209 183 423 258 604 284 677 279 792 -6 136 -89 228 -335 375 -28 16
-262 114 -359 150 -41 15 -67 31 -73 45 -20 41 -251 127 -273 100 -6 -7 -41
-13 -90 -14 -151 -4 -175 -6 -175 -12 0 -3 47 -30 104 -59 93 -47 103 -55 99
-77 -7 -35 25 -52 186 -99 51 -15 55 -15 82 4 l28 20 83 -28 c235 -82 388
-185 447 -301 28 -54 34 -122 15 -168 -14 -33 -179 -364 -417 -837 l-71 -140
-14 55 c-136 530 -484 833 -982 856 -102 5 -137 2 -185 -11 -98 -29 -418 -185
-510 -251 -57 -40 -65 -42 -151 -49 -296 -22 -554 -168 -712 -405 -100 -149
-164 -338 -178 -522 -7 -86 -8 -90 -28 -85 -12 3 -37 9 -57 12 -41 7 -50 20
-73 111 -21 81 -17 184 9 218 21 28 86 68 120 73 48 7 48 7 42 110 -8 138 -16
179 -54 292 -58 173 -147 301 -263 379 -58 40 -92 56 -180 91 -137 54 -325
212 -392 330 l-25 45 2 405 c4 543 12 708 36 772 l11 27 28 -20 c61 -45 94 13
47 82 -18 27 -22 41 -15 59 12 34 16 35 35 18 30 -27 68 -27 75 0 6 21 -25 91
-47 108 -9 6 -17 33 -19 61 -5 58 -39 143 -67 169 -10 9 -19 28 -19 41 0 102
-144 183 -246 139z m-336 -3020 c66 -34 103 -123 108 -256 6 -177 -45 -298
-151 -357 -55 -30 -103 -44 -92 -25 3 4 8 102 12 217 13 436 11 419 50 428 35
8 45 7 73 -7z m3527 -1340 c33 -28 62 -51 63 -52 2 -1 6 -39 8 -83 5 -80 41
-213 70 -258 19 -30 18 -34 -9 -24 -13 5 -70 17 -127 26 -118 19 -119 19 -215
30 -98 11 -116 13 -240 20 -98 6 -161 11 -190 14 -5 1 22 16 60 35 92 44 194
118 281 202 95 93 204 166 224 151 8 -6 42 -34 75 -61z m340 -616 c-3 -5 -14
-10 -23 -9 -14 0 -13 2 3 9 27 11 27 11 20 0z"/>
<path d="M2109 2106 c-2 -2 -47 -7 -99 -11 -52 -3 -104 -8 -115 -10 -11 -2
-47 -7 -80 -10 -217 -22 -501 -94 -605 -153 -54 -31 -67 -43 -79 -74 -17 -44
34 -84 146 -113 58 -15 80 -19 213 -35 74 -9 543 -6 610 3 19 3 62 8 95 12 33
3 92 11 130 16 39 6 88 12 110 15 22 3 46 7 54 10 8 3 30 7 49 10 74 12 251
67 319 100 68 32 113 72 113 99 0 50 -111 101 -265 121 -22 3 -51 7 -65 11
-28 6 -525 14 -531 9z"/>
</g>
</svg>
